# xmcd CD database file
#
# Track frame offsets:
#	150
#	38988
#	65113
#	91399
#	122252
#	149232
#	176999
#	205353
#	238059
#	257918
#	281135
#
# Disc length: 4102 seconds
#
# Revision: 0
# Processed by: cddbd v1.5.2PL0 Copyright (c) Steve Scherf et al.
# Submitted via: CDex 1.51
#
DISCID=b610040b
DTITLE=Marlene - Marlene LIVE With a Little Help From Her Friends
DYEAR=2008
DGENRE=Jazz
TTITLE0=Alone Together
TTITLE1=Blue Skies
TTITLE2=Basic Rule
TTITLE3=Night and Day
TTITLE4=Invitation
TTITLE5=Shoes For a Soul
TTITLE6=So Many Stars
TTITLE7=Sintonado
TTITLE8=Tenderly
TTITLE9=With a Little Help From My Friends
TTITLE10=Some Other Time
EXTD=YEAR: 2008
EXTT0=
EXTT1=
EXTT2=
EXTT3=
EXTT4=
EXTT5=
EXTT6=
EXTT7=
EXTT8=
EXTT9=
EXTT10=
PLAYORDER=
